# xmcd
# 
# Track frame offsets:
#     150
#     1672
#     24667
#     53545
#     79119
#     108969
#     129826
#     153519
#     178964
#     203641
#     231444
#     254858
#     283318
#     307569
#     330828
# 
# Disc length: 4440
# 
# Revision: 0
# Processed by: cddbd v1.5.2PL0 Copyright (c) Steve Scherf et al.
# Submitted via: fre:ac v1.0.27
# 
DISCID=bc11560f
DTITLE=William Gibson - Mona Lisa Overdrive
DYEAR=0
DGENRE=
TTITLE0=Disk 04 Track 01
TTITLE1=Disk 04 Track 02
TTITLE2=Disk 04 Track 03
TTITLE3=Disk 04 Track 04
TTITLE4=Disk 04 Track 05
TTITLE5=Disk 04 Track 06
TTITLE6=Disk 04 Track 07
TTITLE7=Disk 04 Track 08
TTITLE8=Disk 04 Track 09
TTITLE9=Disk 04 Track 10
TTITLE10=Disk 04 Track 11
TTITLE11=Disk 04 Track 12
TTITLE12=Disk 04 Track 13
TTITLE13=Disk 04 Track 14
TTITLE14=Disk 04 Track 15
EXTD=
EXTT0=
EXTT1=
EXTT2=
EXTT3=
EXTT4=
EXTT5=
EXTT6=
EXTT7=
EXTT8=
EXTT9=
EXTT10=
EXTT11=
EXTT12=
EXTT13=
EXTT14=
PLAYORDER=
